<?xml version="1.0" encoding="UTF-8"?>
<svg version="1.1" xmlns="http://www.w3.org/2000/svg" width="120" height="120">
<path d="M0 0 C2.88989258 1.21826172 2.88989258 1.21826172 5.89453125 2.9296875 C7.00779785 3.55593018 8.12106445 4.18217285 9.26806641 4.82739258 C10.44982109 5.50944899 11.63129404 6.19199373 12.8125 6.875 C14.02209729 7.5630194 15.23222438 8.25010817 16.44287109 8.9362793 C19.97125481 10.9415028 23.48560797 12.97036058 27 15 C28.8396605 16.05110204 30.67948395 17.10191899 32.51953125 18.15234375 C34.0556037 19.03747441 35.59083897 19.92406048 37.125 20.8125 C38.17071167 21.41457275 38.17071167 21.41457275 39.23754883 22.02880859 C43.8812562 24.76251241 43.8812562 24.76251241 45 27 C45.11052822 28.64301437 45.15913538 30.29038077 45.17700195 31.93701172 C45.19625481 33.47903763 45.19625481 33.47903763 45.21589661 35.05221558 C45.22328354 36.16678131 45.23067047 37.28134705 45.23828125 38.4296875 C45.246353 39.57156525 45.25442474 40.71344299 45.26274109 41.8899231 C45.27658877 44.30924965 45.28730785 46.7285958 45.29516602 49.14794922 C45.31239728 52.85291372 45.35628085 56.55699038 45.40039062 60.26171875 C45.41051559 62.60936842 45.4190323 64.95702569 45.42578125 67.3046875 C45.44328934 68.41520477 45.46079742 69.52572205 45.47883606 70.66989136 C45.47591049 71.70421295 45.47298492 72.73853455 45.4699707 73.80419922 C45.47583694 74.71305878 45.48170319 75.62191833 45.48774719 76.55831909 C44.84329838 79.78445425 43.49764123 80.9256788 41 83 C38.93430469 84.27916597 36.82435274 85.48814763 34.6875 86.64453125 C34.07793457 86.97740646 33.46836914 87.31028168 32.84033203 87.65324402 C30.8970574 88.712929 28.94884613 89.76310271 27 90.8125 C25.08784645 91.84911915 23.17681615 92.88776036 21.26660156 93.927948 C20.00807381 94.61262169 18.74830903 95.29502655 17.48730469 95.97512817 C12.43417336 98.71447205 7.53960392 101.67982719 2.68359375 104.7565918 C-0.530619 106.2458554 -2.49031354 106.41458618 -6 106 C-8.67456055 104.8894043 -8.67456055 104.8894043 -11.38671875 103.32421875 C-12.39927734 102.74833008 -13.41183594 102.17244141 -14.45507812 101.57910156 C-15.52177734 100.95487305 -16.58847656 100.33064453 -17.6875 99.6875 C-18.78642578 99.05682617 -19.88535156 98.42615234 -21.01757812 97.77636719 C-23.26405994 96.48512851 -25.50739898 95.18840664 -27.74755859 93.88623047 C-30.7655599 92.13596188 -33.79530045 90.40891444 -36.83203125 88.69140625 C-38.55501861 87.71151947 -40.27769485 86.73108536 -42 85.75 C-42.80010498 85.29713623 -43.60020996 84.84427246 -44.42456055 84.37768555 C-49.88475786 81.23048428 -49.88475786 81.23048428 -51 79 C-51.11052822 77.35698563 -51.15913538 75.70961923 -51.17700195 74.06298828 C-51.18983719 73.03497101 -51.20267242 72.00695374 -51.21589661 70.94778442 C-51.22328354 69.83321869 -51.23067047 68.71865295 -51.23828125 67.5703125 C-51.246353 66.42843475 -51.25442474 65.28655701 -51.26274109 64.1100769 C-51.27658877 61.69075035 -51.28730785 59.2714042 -51.29516602 56.85205078 C-51.31239728 53.14708628 -51.35628085 49.44300962 -51.40039062 45.73828125 C-51.41051559 43.39063158 -51.4190323 41.04297431 -51.42578125 38.6953125 C-51.44328934 37.58479523 -51.46079742 36.47427795 -51.47883606 35.33010864 C-51.47591049 34.29578705 -51.47298492 33.26146545 -51.4699707 32.19580078 C-51.47583694 31.28694122 -51.48170319 30.37808167 -51.48774719 29.44168091 C-50.84421445 26.22013166 -49.4905479 25.07360679 -47 23 C-45.10297848 21.80731308 -43.16283463 20.68177857 -41.1953125 19.609375 C-39.49314575 18.67363647 -39.49314575 18.67363647 -37.7565918 17.71899414 C-36.5462366 17.06233935 -35.33570293 16.40601343 -34.125 15.75 C-31.67454529 14.41241166 -29.2259755 13.07139054 -26.77734375 11.73046875 C-26.18180191 11.4052977 -25.58626007 11.08012665 -24.97267151 10.74510193 C-21.71955 8.96386896 -18.49885753 7.14282585 -15.31640625 5.23828125 C-14.6826709 4.86026367 -14.04893555 4.48224609 -13.39599609 4.09277344 C-11.82480121 3.14529667 -10.2616019 2.18459411 -8.69921875 1.22265625 C-5.4599325 -0.2446326 -3.53869524 -0.2870161 0 0 Z " fill="#872192" transform="translate(63,7)"/>
<path d="M0 0 C4.78300755 3.03422041 8.68045547 6.67838486 11.875 11.375 C11.875 12.035 11.875 12.695 11.875 13.375 C9.79926919 14.57784401 7.71616905 15.76205701 5.625 16.9375 C5.03847656 17.27974609 4.45195313 17.62199219 3.84765625 17.97460938 C-0.54237615 20.41625661 -0.54237615 20.41625661 -3.38671875 20.21484375 C-5.93686558 18.98275034 -7.94280238 17.16552113 -10.125 15.375 C-15.9258561 13.4413813 -22.0231746 13.38140981 -27.5625 16 C-31.19900685 19.37042098 -33.79695844 21.90178781 -34.47265625 26.99609375 C-34.6436263 32.47456885 -34.37853399 36.77517608 -31.125 41.375 C-25.91346979 46.07808824 -22.7536918 46.66550853 -15.8828125 46.59375 C-9.92310182 46.12102507 -6.71678528 43.04842822 -2.125 39.375 C2.495 42.015 7.115 44.655 11.875 47.375 C8.75619305 55.17201738 2.40920759 60.28864907 -5.23828125 63.69921875 C-8.23580904 64.77286742 -10.94601454 65.15947556 -14.125 65.375 C-14.9603125 65.43816406 -15.795625 65.50132813 -16.65625 65.56640625 C-26.25473297 65.98431773 -33.83321118 63.05843106 -41.30859375 57.078125 C-48.19351243 50.62258834 -52.60787532 42.84329727 -53.36328125 33.39453125 C-53.62208362 22.21154448 -50.81313435 13.63262578 -43.125 5.375 C-30.94989041 -5.96044686 -14.57040085 -8.08734165 0 0 Z " fill="#FCFAFC" transform="translate(78.125,29.625)"/>
</svg>
